<?xml version="1.0" standalone="no"?>
<!DOCTYPE svg PUBLIC "-//W3C//DTD SVG 20010904//EN"
 "http://www.w3.org/TR/2001/REC-SVG-20010904/DTD/svg10.dtd">
<svg version="1.0" xmlns="http://www.w3.org/2000/svg"
 width="217.000000pt" height="217.000000pt" viewBox="0 0 217.000000 217.000000"
 preserveAspectRatio="xMidYMid meet">
<metadata>
Created by potrace 1.11, written by Peter Selinger 2001-2013
</metadata>
<g transform="translate(0.000000,217.000000) scale(0.100000,-0.100000)"
fill="#000000" stroke="none">
<path d="M946 2114 c-49 -30 -90 -54 -93 -54 -2 0 -20 -10 -41 -23 -20 -13
-62 -37 -92 -54 -64 -35 -105 -58 -175 -100 -27 -16 -57 -32 -65 -36 -8 -4
-67 -38 -130 -76 -123 -73 -151 -104 -132 -145 14 -30 827 -500 864 -499 15 0
85 34 155 75 71 41 148 86 173 100 298 168 516 301 527 323 19 36 -2 75 -57
103 -14 7 -52 28 -85 48 -33 19 -68 38 -77 41 -10 3 -18 9 -18 14 0 5 -4 9 -9
9 -5 0 -75 38 -156 85 -80 47 -167 97 -193 111 -26 15 -88 51 -139 80 -119 71
-138 71 -257 -2z m404 -232 c14 -9 27 -17 30 -17 3 0 48 -26 100 -56 52 -31
106 -62 120 -69 14 -7 27 -16 30 -19 3 -3 27 -18 55 -33 27 -14 51 -30 52 -35
2 -5 -25 -25 -59 -45 -35 -20 -176 -102 -315 -182 -138 -80 -262 -148 -276
-151 -17 -5 -37 1 -63 18 -39 24 -456 266 -549 317 -27 16 -51 33 -53 38 -2 6
18 23 45 38 26 15 95 55 153 89 58 34 125 74 150 87 25 14 99 57 165 95 66 39
127 72 135 75 12 4 180 -86 280 -150z"/>
<path d="M975 1903 c-25 -8 -46 -18 -46 -23 -11 -84 -1 -104 44 -85 33 14 63
18 109 16 21 -1 29 -7 34 -27 7 -29 -5 -46 -38 -51 -62 -8 -68 -12 -68 -47 0
-39 15 -54 50 -51 54 5 93 -40 66 -77 -11 -14 -71 -40 -78 -33 -1 2 -17 5 -34
8 -17 3 -41 10 -52 16 -43 23 -53 15 -50 -41 l3 -52 45 -13 c64 -19 158 -19
204 1 101 42 130 152 57 218 l-30 27 23 24 c41 44 42 122 3 161 -37 37 -162
52 -242 29z"/>
<path d="M117 1492 c-15 -17 -17 -67 -17 -511 0 -381 3 -495 13 -505 11 -11
140 -90 227 -138 31 -18 178 -103 220 -128 247 -147 367 -210 401 -210 68 0
66 -13 65 525 -1 264 -5 485 -9 491 -6 10 -104 72 -172 110 -11 6 -139 80
-285 164 -417 242 -410 238 -443 202z m304 -273 c96 -56 194 -113 219 -127 25
-14 62 -36 82 -49 21 -12 40 -23 42 -23 14 0 126 -74 127 -84 5 -47 3 -740 -2
-748 -4 -7 -58 18 -135 63 -182 103 -518 299 -524 305 -2 3 -5 176 -5 385 0
274 3 379 11 379 6 0 89 -46 185 -101z"/>
<path d="M380 970 c-10 -6 -13 -55 -14 -225 -1 -119 2 -222 6 -228 7 -11 189
-13 242 -1 73 15 128 64 163 145 15 34 10 146 -7 184 -18 40 -76 94 -120 113
-39 16 -247 26 -270 12z m234 -116 c31 -23 45 -66 41 -128 -5 -88 -59 -131
-150 -118 -13 2 -13 241 -1 261 12 18 76 9 110 -15z"/>
<path d="M1700 1348 c-151 -87 -295 -171 -320 -185 -147 -83 -231 -136 -239
-151 -11 -21 -8 -970 3 -994 14 -31 82 -23 146 15 30 18 80 47 110 64 30 17
93 53 140 80 242 142 403 233 411 233 5 0 9 3 9 8 0 4 13 13 28 20 16 6 38 21
50 32 l22 21 0 494 0 494 -22 15 c-12 9 -32 16 -43 15 -11 0 -144 -73 -295
-161z m235 -412 c-1 -206 -3 -377 -5 -380 -18 -16 -647 -376 -659 -376 -5 0
-9 156 -9 380 l0 380 27 19 c14 10 78 47 141 84 63 36 129 73 147 83 17 11
103 60 190 111 87 50 160 88 163 83 3 -4 5 -177 5 -384z"/>
<path d="M1510 967 c-37 -16 -87 -72 -93 -106 -7 -35 9 -98 31 -121 23 -22 75
-45 140 -60 94 -22 92 -80 -2 -84 -35 -2 -62 4 -104 25 -31 16 -60 25 -65 20
-4 -4 -7 -30 -5 -57 l3 -49 55 -18 c53 -18 126 -23 182 -12 79 15 138 87 132
162 -4 66 -45 106 -129 127 -103 26 -105 26 -105 51 0 13 8 28 18 34 26 14
109 5 145 -17 18 -10 38 -17 45 -14 13 4 17 80 4 98 -21 32 -192 46 -252 21z"/>
</g>
</svg>
